# xmcd
# Track frame offsets:
# 150
# 15235
# 33735
# 49877
# 64330
# 76805
#
# Disc length: 1167 seconds
# Revision: 0
# Processed by: cddbd v1.4PL0 Copyright (c) Steve Scherf et al.
# Submitted via: VisiTrax 2.9.6.190 - For more info visit www.synapsa.com
#
DISCID=44048d06
DTITLE=Dance Ranch - Dance Ranch
DYEAR=1900
DGENRE=Country
TTITLE0=I feel Lucky
TTITLE1=Tow sparrows in a Hurrican
TTITLE2=Mama Knows the Highway
TTITLE3=I Couldn´t leave you if I try
TTITLE4=He´s a good ole boy
TTITLE5=That´s allright Mama
EXTD=Danich country
EXTT0=
EXTT1=
EXTT2=
EXTT3=
EXTT4=
EXTT5=
PLAYORDER=
